<svg id="Layer_1" data-name="Layer 1" xmlns="http://www.w3.org/2000/svg" viewBox="0 0 2500 2500"><defs><style>.cls-1{fill:#fff;}.cls-1,.cls-2,.cls-3,.cls-4,.cls-5{fill-rule:evenodd;}.cls-2,.cls-6{fill:#272727;}.cls-3,.cls-7{fill:#f5e1a7;}.cls-4{fill:#a26858;}.cls-5{fill:#ceaa8f;}.cls-6{font-size:283px;font-family:FranklinGothic-Heavy, Franklin Gothic Heavy;font-weight:800;}.cls-7{font-size:182px;font-family:BlackadderITC-Regular, Blackadder ITC;}</style></defs><path class="cls-1" d="M0,0H2500V2500H0Z"/><path class="cls-2" d="M271.39,999.7c-18-8.06-36.09-10.06-44.11-12.07-22.06-36.19-40.1-68.36-40.1-68.36s-22.06-36.2-36.1-64.33c-8-14.07-24.05-22.11-38.1-24.12H92.06c-2.28.52-4.67,1.18-7.16,2-12,4-24.06,14.07-24.06,14.07C48.73,855.41,41,866.8,36.78,874.53V920a25.09,25.09,0,0,0,2,3.27c0,2,62.17,88.47,96.25,132.7q-3,6-6,24.12L115,1088.16s-38.11,26.14-28.08,86.45c0,0,10,86.45,86.22,122.65-16,52.26-16,112.58-16,170.89v80.43s2,20.09,2,32.16c-12,6-24,22.12-24,36.17,0,0,0,2,6,2l6,2,106.29-2v-4c2-28.14,8-60.31,16-92.48l2-6c6-14.09,10-30.17,24.06-40.21,12-10,26.06,4,32.08,10,32.09,38.19,56.15,86.45,70.18,132.7v2l94.25-2h4c8-2,6-10.05,6-10.05a75.85,75.85,0,0,0-24.06-30.17c2-26.14,4-56.29,4-82.42v-30.14c28.08-16.08,50.13-42.23,60.16-72.4,8-16.06,0-32.15-10-44.23l-46.12-64.31c54.13-54.29,58.14-122.66,58.14-122.66,6-60.31-60.17-84.44-60.17-84.44l-96.24-34.18c4-10.05,8-20.1,10-32.16V993.64c0-32.17-4-58.3-36.1-78.4-16-10-44.12-10-60.16,2-28.08,22.11-30.08,46.24-30.08,74.38v2s.05,4.05.05,6.06Z"/><path class="cls-3" d="M502,1136.41c16,34.19-14,84.45-14,84.45-38.1,64.34-84.22,74.4-84.22,74.4-50.13,14.06-84.23,2-84.23,2,78.21-24.13,112.31-80.42,112.31-80.42,26.07-38.2,36.09-86.46,38.1-104.55C496,1126.36,502,1136.41,502,1136.41Zm-66.17-38.2c-2,14.08-12,48.25-12,48.25-4,14.07-8,26.14-14,36.19l-2-2-60.17-92.48a101.32,101.32,0,0,0-6-10.05h6c2-2,6-2,6-2,2-2,6-2,8-4Z"/><path class="cls-4" d="M171.12,1052c-30.07-40.2-56.14-76.4-74.2-104.54,16-6,32.09-10.06,46.12-32.17,8,16.08,66.19,108.57,66.19,108.57h2c38.1-6,60.15,18.11,60.15,18.11,2,4,8,10,14.05,20.1,8,10,14,20.1,18.05,26.15L381.7,1206.8l6,6a188.27,188.27,0,0,1-18.06,16.08c-10,8-20.05,14.07-30.07,20.1-2-4-10-10-22.06-14.07,0,0-40.11-6-72.19-28.14,0,0-24.06-14.07-50.13-50.26-2-2-12-16.08-14-16.08a153.42,153.42,0,0,1-8-14.07c-22.07-38.2-4-72.39-2-72.39v-2Z"/><path class="cls-3" d="M141.05,1218.85S115,1172.61,121,1142.44c0,0,2-12.06,12-20.1,2,6,2,8,6,14.07,14,24.12,30.08,46.24,44.11,66.35,2,4,36.09,50.27,116.31,64.33,0,0-22.06,16.09-70.19,10.06,0,0-54.15-4-88.23-58.3Zm304.8,317.64v52.28l-22.06,2c-4-18.1-12-34.2-20.05-50.28l-8-14.06c-16-30.17-44.12-78.43-78.21-88.45-26.07-6.06-48.12,6-60.16,28.14-18,30.14-26.07,62.32-32.09,96.48-2,10.05-2,20.12-4,28.17H191.17v-6c-2-24.11-2-52.26-2-82.43,0-60.31,0-128.66,16.05-193a240.47,240.47,0,0,0,62.16,4c20.05,26.15,46.12,62.32,82.22,110.57l30.07,40.21c12,16.08,34.09,24.13,56.15,20.11,4,0,6-2,10-2v54.25Z"/><path class="cls-4" d="M508,1379.68c-2,14.06-12,24.12-22.07,36.18-16,18.1-36.09,30.16-62.16,34.2-12,2-18-6-24.06-16.08-2,0-16-22.12-36.09-50.26-12-16.08-24.06-34.2-36.1-50.29,52.14,16.09,108.29-12.06,108.29-12.06,8-4,16-8,22.06-14.06q19.88,29,42.11,56.29l2,4c2,4,6,10,6,12Z"/><path class="cls-3" d="M303.48,987.63c0-18.1,4-30.15,20-42.21h2c14-4,30.07,2,36.11,18.09,8,20.1,10,44.23-4,64.34-8,10-18.06,14.08-30.08,10h-2s-2-2-4-2l-12-14.07C303.48,1011.76,303.48,997.69,303.48,987.63Z"/><path class="cls-4" d="M1352.57,1293.24a22.12,22.12,0,1,1,22-22.11A22.28,22.28,0,0,1,1352.57,1293.24Z"/><path class="cls-5" d="M64.85,907.22c-2-2-2-6-2-8.05,0-10,8-22.12,18-30.16,8-6,18.06-8,26.07-6,4,2,8,4,10,8,4,4,4,8.06,4,14.08,0,8-6,18.09-14,24.12-14,8-32.1,8-42.11-2Z"/><text class="cls-6" transform="translate(608.71 1293.14)">WINE HUB</text><text class="cls-7" transform="translate(1050 1450.05)">Wine and dine</text></svg>